<svg xmlns="http://www.w3.org/2000/svg" xmlns:xlink="http://www.w3.org/1999/xlink" width="150" zoomAndPan="magnify" viewBox="0 0 112.5 112.499997" height="150" preserveAspectRatio="xMidYMid meet" version="1.0"><defs><clipPath id="306546e74e"><path d="M 0 0 L 112.003906 0 L 112.003906 112.003906 L 0 112.003906 Z M 0 0 " clip-rule="nonzero"/></clipPath><clipPath id="a560f08d5d"><path d="M 0 0 L 112.003906 0 L 112.003906 112.003906 L 0 112.003906 Z M 0 0 " clip-rule="nonzero"/></clipPath><clipPath id="db0901d335"><rect x="0" width="113" y="0" height="113"/></clipPath><clipPath id="d1bb7cbbfb"><path d="M 34.636719 15.53125 L 77.363281 15.53125 L 77.363281 58.257812 L 34.636719 58.257812 Z M 34.636719 15.53125 " clip-rule="nonzero"/></clipPath><clipPath id="e9f11d98b2"><path d="M 56 15.53125 C 44.203125 15.53125 34.636719 25.097656 34.636719 36.894531 C 34.636719 48.695312 44.203125 58.257812 56 58.257812 C 67.800781 58.257812 77.363281 48.695312 77.363281 36.894531 C 77.363281 25.097656 67.800781 15.53125 56 15.53125 Z M 56 15.53125 " clip-rule="nonzero"/></clipPath><clipPath id="5ee5a6ed42"><path d="M 0.636719 0.53125 L 43.363281 0.53125 L 43.363281 43.257812 L 0.636719 43.257812 Z M 0.636719 0.53125 " clip-rule="nonzero"/></clipPath><clipPath id="75efa461b1"><path d="M 22 0.53125 C 10.203125 0.53125 0.636719 10.097656 0.636719 21.894531 C 0.636719 33.695312 10.203125 43.257812 22 43.257812 C 33.800781 43.257812 43.363281 33.695312 43.363281 21.894531 C 43.363281 10.097656 33.800781 0.53125 22 0.53125 Z M 22 0.53125 " clip-rule="nonzero"/></clipPath><clipPath id="b3be95beac"><rect x="0" width="44" y="0" height="44"/></clipPath><clipPath id="95e454e5e4"><path d="M 11.820312 62.714844 L 100.183594 62.714844 L 100.183594 112.003906 L 11.820312 112.003906 Z M 11.820312 62.714844 " clip-rule="nonzero"/></clipPath><clipPath id="2f2fe13325"><path d="M 56 62.714844 C 31.601562 62.714844 11.820312 86.722656 11.820312 116.332031 C 11.820312 145.945312 31.601562 169.953125 56 169.953125 C 80.402344 169.953125 100.183594 145.945312 100.183594 116.332031 C 100.183594 86.722656 80.402344 62.714844 56 62.714844 Z M 56 62.714844 " clip-rule="nonzero"/></clipPath><clipPath id="b59b156f0c"><path d="M 0.820312 0.714844 L 89.183594 0.714844 L 89.183594 50.003906 L 0.820312 50.003906 Z M 0.820312 0.714844 " clip-rule="nonzero"/></clipPath><clipPath id="ec6de99258"><path d="M 45 0.714844 C 20.601562 0.714844 0.820312 24.722656 0.820312 54.332031 C 0.820312 83.945312 20.601562 107.953125 45 107.953125 C 69.402344 107.953125 89.183594 83.945312 89.183594 54.332031 C 89.183594 24.722656 69.402344 0.714844 45 0.714844 Z M 45 0.714844 " clip-rule="nonzero"/></clipPath><clipPath id="3c096c1093"><rect x="0" width="90" y="0" height="51"/></clipPath></defs><g clip-path="url(#306546e74e)"><path fill="#ffffff" d="M 0 0 L 112.003906 0 L 112.003906 112.003906 L 0 112.003906 Z M 0 0 " fill-opacity="1" fill-rule="nonzero"/><path fill="#ffffff" d="M 0 0 L 112.003906 0 L 112.003906 112.003906 L 0 112.003906 Z M 0 0 " fill-opacity="1" fill-rule="nonzero"/><g transform="matrix(1, 0, 0, 1, 0, -0.000000000000000624)"><g clip-path="url(#db0901d335)"><g clip-path="url(#a560f08d5d)"><path fill="#ff3131" d="M 0 0 L 112.003906 0 L 112.003906 112.003906 L 0 112.003906 Z M 0 0 " fill-opacity="1" fill-rule="nonzero"/></g></g></g></g><g clip-path="url(#d1bb7cbbfb)"><g clip-path="url(#e9f11d98b2)"><g transform="matrix(1, 0, 0, 1, 34, 15)"><g clip-path="url(#b3be95beac)"><g clip-path="url(#5ee5a6ed42)"><g clip-path="url(#75efa461b1)"><path fill="#d9d9d9" d="M 0.636719 0.53125 L 43.363281 0.53125 L 43.363281 43.257812 L 0.636719 43.257812 Z M 0.636719 0.53125 " fill-opacity="1" fill-rule="nonzero"/></g></g></g></g></g></g><g clip-path="url(#95e454e5e4)"><g clip-path="url(#2f2fe13325)"><g transform="matrix(1, 0, 0, 1, 11, 62)"><g clip-path="url(#3c096c1093)"><g clip-path="url(#b59b156f0c)"><g clip-path="url(#ec6de99258)"><path fill="#d9d9d9" d="M 0.820312 0.714844 L 89.183594 0.714844 L 89.183594 108.0625 L 0.820312 108.0625 Z M 0.820312 0.714844 " fill-opacity="1" fill-rule="nonzero"/></g></g></g></g></g></g></svg>